<?xml version="1.0" encoding="utf-8"?>
<!-- Generator: Adobe Illustrator 16.0.0, SVG Export Plug-In . SVG Version: 6.00 Build 0)  -->
<!DOCTYPE svg PUBLIC "-//W3C//DTD SVG 1.1//EN" "http://www.w3.org/Graphics/SVG/1.1/DTD/svg11.dtd">
<svg version="1.1" id="Layer_1" xmlns="http://www.w3.org/2000/svg" xmlns:xlink="http://www.w3.org/1999/xlink" x="0px" y="0px"
	 width="1600px" height="370px" viewBox="0 0 1600 370" enable-background="new 0 0 1600 370" xml:space="preserve">
<g>
	
		<linearGradient id="SVGID_1_" gradientUnits="userSpaceOnUse" x1="836.5" y1="2171.9004" x2="836.4999" y2="459.0321" gradientTransform="matrix(0 -1 0.94 0 -436.4037 982.7637)">
		<stop  offset="0" style="stop-color:#F2B936"/>
		<stop  offset="0.0795" style="stop-color:#F2C857"/>
		<stop  offset="0.1836" style="stop-color:#F2DF85"/>
		<stop  offset="0.3051" style="stop-color:#F8A933"/>
		<stop  offset="0.3325" style="stop-color:#DB9031"/>
		<stop  offset="0.3786" style="stop-color:#BD742D"/>
		<stop  offset="0.425" style="stop-color:#A9622A"/>
		<stop  offset="0.4712" style="stop-color:#9E5728"/>
		<stop  offset="0.5172" style="stop-color:#9A5428"/>
		<stop  offset="0.5547" style="stop-color:#A05B2A"/>
		<stop  offset="0.6135" style="stop-color:#B26D2F"/>
		<stop  offset="0.6859" style="stop-color:#D18E3A"/>
		<stop  offset="0.7448" style="stop-color:#F6B548"/>
		<stop  offset="0.7576" style="stop-color:#F6BA4E"/>
		<stop  offset="0.8434" style="stop-color:#F3D577"/>
		<stop  offset="0.8879" style="stop-color:#F2DF85"/>
		<stop  offset="0.8984" style="stop-color:#F2DB7E"/>
		<stop  offset="1" style="stop-color:#F2B936"/>
	</linearGradient>
	<rect x="0" y="129.483" fill="url(#SVGID_1_)" width="1600" height="33.56"/>
	<g>
		<g>
			
				<linearGradient id="SVGID_2_" gradientUnits="userSpaceOnUse" x1="522.4053" y1="411.5449" x2="657.8212" y2="132.6508" gradientTransform="matrix(0.9946 -0.1039 0.1039 0.9946 119.1626 23.2844)">
				<stop  offset="0.0254" style="stop-color:#9A5428"/>
				<stop  offset="0.0636" style="stop-color:#9E5828"/>
				<stop  offset="0.1108" style="stop-color:#A8642A"/>
				<stop  offset="0.1627" style="stop-color:#BA782E"/>
				<stop  offset="0.2176" style="stop-color:#D59833"/>
				<stop  offset="0.2566" style="stop-color:#F2B936"/>
				<stop  offset="0.3137" style="stop-color:#F2C857"/>
				<stop  offset="0.3909" style="stop-color:#F2DF85"/>
				<stop  offset="0.4832" style="stop-color:#F6B94B"/>
				<stop  offset="0.5182" style="stop-color:#F8A933"/>
				<stop  offset="0.5767" style="stop-color:#E29830"/>
				<stop  offset="0.6808" style="stop-color:#B87429"/>
				<stop  offset="0.8175" style="stop-color:#7E441C"/>
				<stop  offset="0.8296" style="stop-color:#793F1A"/>
			</linearGradient>
			<path fill="url(#SVGID_2_)" d="M775.185,150.503c-15.375,9.117-74.49,66.599-119.268,182.447c0,0,35.519-25.036,55.006-30.308
				c0,0,23.025,28.623,27.53,34.615c0,0,5.757-43.906,30.074-114.315C792.846,152.535,813.528,127.752,775.185,150.503z"/>
			<g>
				
					<linearGradient id="SVGID_3_" gradientUnits="userSpaceOnUse" x1="1044.5742" y1="-89.8062" x2="1242.9746" y2="-96.214" gradientTransform="matrix(0.9388 0.3446 -0.3446 0.9388 -372.0125 -167.9102)">
					<stop  offset="0.0912" style="stop-color:#884821"/>
					<stop  offset="0.1525" style="stop-color:#8D4C22"/>
					<stop  offset="0.2291" style="stop-color:#9A5825"/>
					<stop  offset="0.3134" style="stop-color:#B16C28"/>
					<stop  offset="0.351" style="stop-color:#BF772A"/>
					<stop  offset="0.3535" style="stop-color:#BE762A"/>
					<stop  offset="0.5057" style="stop-color:#A05D26"/>
					<stop  offset="0.6333" style="stop-color:#8E4E22"/>
					<stop  offset="0.7201" style="stop-color:#884821"/>
				</linearGradient>
				<path fill="url(#SVGID_3_)" d="M795.489,143.86c-0.139-4.74-119.497-36.713-132.952-34.144
					c-13.455,2.566-15.789,4.037-18.417,11.205c-2.625,7.165,43.033,21.065,81.814,23.505
					C764.717,146.866,795.644,149.279,795.489,143.86z"/>
				
					<linearGradient id="SVGID_4_" gradientUnits="userSpaceOnUse" x1="1037.4141" y1="-125.918" x2="1245.7589" y2="-145.6812" gradientTransform="matrix(0.9388 0.3446 -0.3446 0.9388 -372.0125 -167.9102)">
					<stop  offset="0" style="stop-color:#9A5428"/>
					<stop  offset="0.098" style="stop-color:#F2B936"/>
					<stop  offset="0.1388" style="stop-color:#F2C754"/>
					<stop  offset="0.1882" style="stop-color:#F2D470"/>
					<stop  offset="0.2312" style="stop-color:#F2DC80"/>
					<stop  offset="0.2626" style="stop-color:#F2DF85"/>
					<stop  offset="0.395" style="stop-color:#F6B94B"/>
					<stop  offset="0.4453" style="stop-color:#F8A933"/>
					<stop  offset="0.5174" style="stop-color:#E29830"/>
					<stop  offset="0.6459" style="stop-color:#B87429"/>
					<stop  offset="0.8147" style="stop-color:#7E441C"/>
					<stop  offset="0.8296" style="stop-color:#793F1A"/>
				</linearGradient>
				<path fill="url(#SVGID_4_)" d="M793.09,131.633c-7.061-8.879-67.638-88.732-96.374-96.594
					c-24.031-6.573-27.678,1.075-36.39,21.415c-11.709,27.334-15.251,52.389-16.206,64.468c0,0,9.561-15.705,56.534,0.414
					c46.974,16.114,84.856,23.269,90.492,24.774C796.784,147.616,803.441,144.652,793.09,131.633z"/>
				<g opacity="0.3">
					
						<radialGradient id="SVGID_5_" cx="-249.1152" cy="-451.4727" r="1.7095" gradientTransform="matrix(1.168 -1.2068 20.6502 19.9856 10381.9258 8835.6621)" gradientUnits="userSpaceOnUse">
						<stop  offset="0.0011" style="stop-color:#010101"/>
						<stop  offset="0.7817" style="stop-color:#010101;stop-opacity:0"/>
					</radialGradient>
					<path fill="url(#SVGID_5_)" d="M770.278,110.919c19.89,19.251,34.974,35.932,33.685,37.261
						c-1.285,1.328-18.452-13.201-38.342-32.452c-19.89-19.251-34.971-35.933-33.686-37.261
						C733.223,77.139,750.387,91.668,770.278,110.919z"/>
					
						<radialGradient id="SVGID_6_" cx="-519.1514" cy="-882.0879" r="1.7095" gradientTransform="matrix(0.5038 -1.6022 27.4145 8.6215 25202.75 6902.606)" gradientUnits="userSpaceOnUse">
						<stop  offset="0.0011" style="stop-color:#010101"/>
						<stop  offset="0.7817" style="stop-color:#010101;stop-opacity:0"/>
					</radialGradient>
					<path fill="url(#SVGID_6_)" d="M760.209,126.278c26.405,8.305,47.362,16.469,46.807,18.231
						c-0.555,1.765-22.413-3.538-48.817-11.84c-26.405-8.304-47.362-16.466-46.807-18.23
						C711.946,112.675,733.8,117.978,760.209,126.278z"/>
					
						<radialGradient id="SVGID_7_" cx="-325.1909" cy="-807.6895" r="1.7096" gradientTransform="matrix(0.9499 -1.6006 32.0967 19.048 26984.9609 14978.877)" gradientUnits="userSpaceOnUse">
						<stop  offset="0.0011" style="stop-color:#010101"/>
						<stop  offset="0.7817" style="stop-color:#010101;stop-opacity:0"/>
					</radialGradient>
					<path fill="url(#SVGID_7_)" d="M753.795,111.317c30.917,18.351,55.134,34.65,54.084,36.415
						c-1.045,1.761-26.954-11.682-57.87-30.03c-30.917-18.348-55.133-34.651-54.088-36.415
						C696.971,79.526,722.878,92.97,753.795,111.317z"/>
				</g>
			</g>
			<g>
				
					<linearGradient id="SVGID_8_" gradientUnits="userSpaceOnUse" x1="47.5176" y1="264.1211" x2="245.9308" y2="257.7128" gradientTransform="matrix(0.9053 -0.4247 0.4247 0.9053 506.8265 14.6446)">
					<stop  offset="0.0912" style="stop-color:#884821"/>
					<stop  offset="0.1525" style="stop-color:#8D4C22"/>
					<stop  offset="0.2291" style="stop-color:#9A5825"/>
					<stop  offset="0.3134" style="stop-color:#B16C28"/>
					<stop  offset="0.351" style="stop-color:#BF772A"/>
					<stop  offset="0.3535" style="stop-color:#BE762A"/>
					<stop  offset="0.5057" style="stop-color:#A05D26"/>
					<stop  offset="0.6333" style="stop-color:#8E4E22"/>
					<stop  offset="0.7201" style="stop-color:#884821"/>
				</linearGradient>
				<path fill="url(#SVGID_8_)" d="M797.372,148.19c-3.466-3.241-110.161,59.09-117.801,70.458
					c-7.641,11.367-8.239,14.06-4.994,20.968c3.245,6.906,45.243-15.76,74.261-41.603
					C777.856,172.171,801.331,151.893,797.372,148.19z"/>
				
					<linearGradient id="SVGID_9_" gradientUnits="userSpaceOnUse" x1="40.3594" y1="228.002" x2="248.7171" y2="208.2375" gradientTransform="matrix(0.9053 -0.4247 0.4247 0.9053 506.8265 14.6446)">
					<stop  offset="0" style="stop-color:#9A5428"/>
					<stop  offset="0.098" style="stop-color:#F2B936"/>
					<stop  offset="0.1388" style="stop-color:#F2C754"/>
					<stop  offset="0.1882" style="stop-color:#F2D470"/>
					<stop  offset="0.2312" style="stop-color:#F2DC80"/>
					<stop  offset="0.2626" style="stop-color:#F2DF85"/>
					<stop  offset="0.395" style="stop-color:#F6B94B"/>
					<stop  offset="0.4453" style="stop-color:#F8A933"/>
					<stop  offset="0.5174" style="stop-color:#E29830"/>
					<stop  offset="0.6459" style="stop-color:#B87429"/>
					<stop  offset="0.8147" style="stop-color:#7E441C"/>
					<stop  offset="0.8296" style="stop-color:#793F1A"/>
				</linearGradient>
				<path fill="url(#SVGID_9_)" d="M786.991,141.291c-11.272-1.23-110.64-14.362-136.442,0.525
					c-21.582,12.454-18.711,20.428-10.384,40.931c11.186,27.549,26.499,47.693,34.412,56.869c0,0-4.435-17.84,40.067-39.883
					c44.502-22.042,76.238-43.932,81.273-46.879C800.955,149.911,803.528,143.095,786.991,141.291z"/>
				<g opacity="0.3">
					
						<radialGradient id="SVGID_10_" cx="-674.4238" cy="-1094.8481" r="1.7095" gradientTransform="matrix(-0.0358 -1.6791 28.7316 -0.6124 32188.918 -1656.6108)" gradientUnits="userSpaceOnUse">
						<stop  offset="0.0011" style="stop-color:#010101"/>
						<stop  offset="0.7817" style="stop-color:#010101;stop-opacity:0"/>
					</radialGradient>
					<path fill="url(#SVGID_10_)" d="M756.224,142.928c27.675-0.592,50.142,0.429,50.182,2.274
						c0.04,1.849-22.366,3.826-50.037,4.418c-27.676,0.592-50.143-0.429-50.183-2.278
						C706.147,145.493,728.552,143.516,756.224,142.928z"/>
					
						<radialGradient id="SVGID_11_" cx="-653.8887" cy="-1680.7612" r="1.7095" gradientTransform="matrix(-0.7841 -1.4852 25.4147 -13.4161 42965.0039 -23356.5977)" gradientUnits="userSpaceOnUse">
						<stop  offset="0.0011" style="stop-color:#010101"/>
						<stop  offset="0.7817" style="stop-color:#010101;stop-opacity:0"/>
					</radialGradient>
					<path fill="url(#SVGID_11_)" d="M760.057,160.891c24.478-12.921,45.024-22.071,45.885-20.438
						c0.864,1.638-18.278,13.437-42.76,26.361c-24.478,12.921-45.021,22.072-45.885,20.438
						C716.432,185.619,735.579,173.815,760.057,160.891z"/>
					
						<radialGradient id="SVGID_12_" cx="-584.6035" cy="-1378.6089" r="1.7095" gradientTransform="matrix(-0.4691 -1.8012 36.1183 -9.4086 50264.6445 -13865.1885)" gradientUnits="userSpaceOnUse">
						<stop  offset="0.0011" style="stop-color:#010101"/>
						<stop  offset="0.7817" style="stop-color:#010101;stop-opacity:0"/>
					</radialGradient>
					<path fill="url(#SVGID_12_)" d="M744.914,154.92c34.79-9.06,63.412-14.797,63.928-12.816
						c0.519,1.985-27.266,10.939-62.059,19.999c-34.79,9.063-63.412,14.802-63.928,12.815
						C682.34,172.937,710.125,163.982,744.914,154.92z"/>
				</g>
			</g>
		</g>
		<g>
			
				<linearGradient id="SVGID_13_" gradientUnits="userSpaceOnUse" x1="-444.9136" y1="310.4951" x2="-309.4974" y2="31.6003" gradientTransform="matrix(-0.9946 -0.1039 -0.1039 0.9946 508.2427 23.2844)">
				<stop  offset="0.0254" style="stop-color:#9A5428"/>
				<stop  offset="0.0636" style="stop-color:#9E5828"/>
				<stop  offset="0.1108" style="stop-color:#A8642A"/>
				<stop  offset="0.1627" style="stop-color:#BA782E"/>
				<stop  offset="0.2176" style="stop-color:#D59833"/>
				<stop  offset="0.2566" style="stop-color:#F2B936"/>
				<stop  offset="0.3137" style="stop-color:#F2C857"/>
				<stop  offset="0.3909" style="stop-color:#F2DF85"/>
				<stop  offset="0.4832" style="stop-color:#F6B94B"/>
				<stop  offset="0.5182" style="stop-color:#F8A933"/>
				<stop  offset="0.5767" style="stop-color:#E29830"/>
				<stop  offset="0.6808" style="stop-color:#B87429"/>
				<stop  offset="0.8175" style="stop-color:#7E441C"/>
				<stop  offset="0.8296" style="stop-color:#793F1A"/>
			</linearGradient>
			<path fill="url(#SVGID_13_)" d="M824.815,150.503c15.374,9.117,74.485,66.599,119.269,182.447c0,0-35.521-25.036-55.007-30.308
				c0,0-23.025,28.623-27.531,34.615c0,0-5.756-43.906-30.074-114.315C807.154,152.535,786.472,127.752,824.815,150.503z"/>
			<g>
				
					<linearGradient id="SVGID_14_" gradientUnits="userSpaceOnUse" x1="131.5889" y1="245.3184" x2="329.9899" y2="238.9105" gradientTransform="matrix(-0.9388 0.3446 0.3446 0.9388 999.4177 -167.9102)">
					<stop  offset="0.0912" style="stop-color:#884821"/>
					<stop  offset="0.1525" style="stop-color:#8D4C22"/>
					<stop  offset="0.2291" style="stop-color:#9A5825"/>
					<stop  offset="0.3134" style="stop-color:#B16C28"/>
					<stop  offset="0.351" style="stop-color:#BF772A"/>
					<stop  offset="0.3535" style="stop-color:#BE762A"/>
					<stop  offset="0.5057" style="stop-color:#A05D26"/>
					<stop  offset="0.6333" style="stop-color:#8E4E22"/>
					<stop  offset="0.7201" style="stop-color:#884821"/>
				</linearGradient>
				<path fill="url(#SVGID_14_)" d="M804.512,143.86c0.138-4.74,119.496-36.713,132.95-34.144
					c13.455,2.566,15.79,4.037,18.418,11.205c2.624,7.165-43.032,21.065-81.815,23.505
					C835.283,146.866,804.356,149.279,804.512,143.86z"/>
				
					<linearGradient id="SVGID_15_" gradientUnits="userSpaceOnUse" x1="124.4316" y1="209.2061" x2="332.7733" y2="189.4431" gradientTransform="matrix(-0.9388 0.3446 0.3446 0.9388 999.4177 -167.9102)">
					<stop  offset="0" style="stop-color:#9A5428"/>
					<stop  offset="0.098" style="stop-color:#F2B936"/>
					<stop  offset="0.1388" style="stop-color:#F2C754"/>
					<stop  offset="0.1882" style="stop-color:#F2D470"/>
					<stop  offset="0.2312" style="stop-color:#F2DC80"/>
					<stop  offset="0.2626" style="stop-color:#F2DF85"/>
					<stop  offset="0.395" style="stop-color:#F6B94B"/>
					<stop  offset="0.4453" style="stop-color:#F8A933"/>
					<stop  offset="0.5174" style="stop-color:#E29830"/>
					<stop  offset="0.6459" style="stop-color:#B87429"/>
					<stop  offset="0.8147" style="stop-color:#7E441C"/>
					<stop  offset="0.8296" style="stop-color:#793F1A"/>
				</linearGradient>
				<path fill="url(#SVGID_15_)" d="M806.91,131.633c7.061-8.879,67.638-88.732,96.372-96.594
					c24.032-6.573,27.68,1.075,36.391,21.415c11.706,27.334,15.251,52.389,16.207,64.468c0,0-9.561-15.705-56.535,0.414
					c-46.974,16.114-84.86,23.269-90.492,24.774C803.216,147.616,796.559,144.652,806.91,131.633z"/>
				<g opacity="0.3">
					
						<radialGradient id="SVGID_16_" cx="-569.8633" cy="-840.3389" r="1.7095" gradientTransform="matrix(-1.168 -1.2068 -20.6502 19.9856 -17186.7344 16220.3262)" gradientUnits="userSpaceOnUse">
						<stop  offset="0.0011" style="stop-color:#010101"/>
						<stop  offset="0.7817" style="stop-color:#010101;stop-opacity:0"/>
					</radialGradient>
					<path fill="url(#SVGID_16_)" d="M829.723,110.919c-19.894,19.251-34.975,35.932-33.686,37.261
						c1.284,1.328,18.453-13.201,38.343-32.452c19.889-19.251,34.97-35.933,33.686-37.261
						C866.776,77.139,849.612,91.668,829.723,110.919z"/>
					
						<radialGradient id="SVGID_17_" cx="-657.5073" cy="-1398.3301" r="1.7095" gradientTransform="matrix(-0.5038 -1.6022 -27.4145 8.6215 -37824.9805 11131.7109)" gradientUnits="userSpaceOnUse">
						<stop  offset="0.0011" style="stop-color:#010101"/>
						<stop  offset="0.7817" style="stop-color:#010101;stop-opacity:0"/>
					</radialGradient>
					<path fill="url(#SVGID_17_)" d="M839.79,126.278c-26.404,8.305-47.362,16.469-46.806,18.231
						c0.555,1.765,22.409-3.538,48.817-11.84c26.405-8.304,47.362-16.466,46.807-18.23S866.2,117.978,839.79,126.278z"/>
					
						<radialGradient id="SVGID_18_" cx="-537.5811" cy="-1166.0215" r="1.7096" gradientTransform="matrix(-0.9499 -1.6006 -32.0967 19.048 -37087.9844 21464.4355)" gradientUnits="userSpaceOnUse">
						<stop  offset="0.0011" style="stop-color:#010101"/>
						<stop  offset="0.7817" style="stop-color:#010101;stop-opacity:0"/>
					</radialGradient>
					<path fill="url(#SVGID_18_)" d="M846.205,111.317c-30.917,18.351-55.134,34.65-54.088,36.415
						c1.048,1.761,26.958-11.682,57.874-30.03c30.916-18.348,55.134-34.651,54.084-36.415
						C903.029,79.526,877.121,92.97,846.205,111.317z"/>
				</g>
			</g>
			<g>
				
					<linearGradient id="SVGID_19_" gradientUnits="userSpaceOnUse" x1="-833.0264" y1="-148.9668" x2="-634.6125" y2="-155.3751" gradientTransform="matrix(-0.9053 -0.4247 -0.4247 0.9053 120.5797 14.6446)">
					<stop  offset="0.0912" style="stop-color:#884821"/>
					<stop  offset="0.1525" style="stop-color:#8D4C22"/>
					<stop  offset="0.2291" style="stop-color:#9A5825"/>
					<stop  offset="0.3134" style="stop-color:#B16C28"/>
					<stop  offset="0.351" style="stop-color:#BF772A"/>
					<stop  offset="0.3535" style="stop-color:#BE762A"/>
					<stop  offset="0.5057" style="stop-color:#A05D26"/>
					<stop  offset="0.6333" style="stop-color:#8E4E22"/>
					<stop  offset="0.7201" style="stop-color:#884821"/>
				</linearGradient>
				<path fill="url(#SVGID_19_)" d="M802.628,148.19c3.467-3.241,110.161,59.09,117.802,70.458
					c7.641,11.367,8.238,14.06,4.994,20.968c-3.245,6.906-45.243-15.76-74.262-41.603
					C822.141,172.171,798.667,151.893,802.628,148.19z"/>
				
					<linearGradient id="SVGID_20_" gradientUnits="userSpaceOnUse" x1="-840.1826" y1="-185.084" x2="-631.8242" y2="-204.8485" gradientTransform="matrix(-0.9053 -0.4247 -0.4247 0.9053 120.5797 14.6446)">
					<stop  offset="0" style="stop-color:#9A5428"/>
					<stop  offset="0.098" style="stop-color:#F2B936"/>
					<stop  offset="0.1388" style="stop-color:#F2C754"/>
					<stop  offset="0.1882" style="stop-color:#F2D470"/>
					<stop  offset="0.2312" style="stop-color:#F2DC80"/>
					<stop  offset="0.2626" style="stop-color:#F2DF85"/>
					<stop  offset="0.395" style="stop-color:#F6B94B"/>
					<stop  offset="0.4453" style="stop-color:#F8A933"/>
					<stop  offset="0.5174" style="stop-color:#E29830"/>
					<stop  offset="0.6459" style="stop-color:#B87429"/>
					<stop  offset="0.8147" style="stop-color:#7E441C"/>
					<stop  offset="0.8296" style="stop-color:#793F1A"/>
				</linearGradient>
				<path fill="url(#SVGID_20_)" d="M813.009,141.291c11.272-1.23,110.64-14.362,136.443,0.525
					c21.577,12.454,18.709,20.428,10.383,40.931c-11.186,27.549-26.499,47.693-34.411,56.869c0,0,4.435-17.84-40.067-39.883
					c-44.502-22.042-76.239-43.932-81.277-46.879C799.045,149.911,796.472,143.095,813.009,141.291z"/>
				<g opacity="0.3">
					
						<radialGradient id="SVGID_21_" cx="-664.5957" cy="-1635.8901" r="1.7095" gradientTransform="matrix(0.0358 -1.6791 -28.7316 -0.6124 -46134.2813 -1971.4316)" gradientUnits="userSpaceOnUse">
						<stop  offset="0.0011" style="stop-color:#010101"/>
						<stop  offset="0.7817" style="stop-color:#010101;stop-opacity:0"/>
					</radialGradient>
					<path fill="url(#SVGID_21_)" d="M843.776,142.928c-27.676-0.592-50.142,0.429-50.182,2.274
						c-0.041,1.849,22.365,3.826,50.037,4.418c27.676,0.592,50.144-0.429,50.183-2.278
						C893.854,145.493,871.448,143.516,843.776,142.928z"/>
					
						<radialGradient id="SVGID_22_" cx="-438.583" cy="-2159.3193" r="1.7096" gradientTransform="matrix(0.7841 -1.4852 -25.4147 -13.4161 -53696.25 -29457.2188)" gradientUnits="userSpaceOnUse">
						<stop  offset="0.0011" style="stop-color:#010101"/>
						<stop  offset="0.7817" style="stop-color:#010101;stop-opacity:0"/>
					</radialGradient>
					<path fill="url(#SVGID_22_)" d="M839.943,160.891c-24.481-12.921-45.024-22.071-45.889-20.438
						c-0.861,1.638,18.282,13.437,42.76,26.361c24.482,12.921,45.025,22.072,45.889,20.438
						C883.567,185.619,864.421,173.815,839.943,160.891z"/>
					
						<radialGradient id="SVGID_23_" cx="-479.6992" cy="-1781.8408" r="1.7096" gradientTransform="matrix(0.4691 -1.8012 -36.1183 -9.4086 -63277.918 -17470.0625)" gradientUnits="userSpaceOnUse">
						<stop  offset="0.0011" style="stop-color:#010101"/>
						<stop  offset="0.7817" style="stop-color:#010101;stop-opacity:0"/>
					</radialGradient>
					<path fill="url(#SVGID_23_)" d="M855.086,154.92c-34.79-9.06-63.412-14.797-63.928-12.816
						c-0.519,1.985,27.266,10.939,62.055,19.999c34.793,9.063,63.417,14.802,63.932,12.815
						C917.66,172.937,889.876,163.982,855.086,154.92z"/>
				</g>
			</g>
		</g>
		<linearGradient id="SVGID_24_" gradientUnits="userSpaceOnUse" x1="799.9604" y1="127.1191" x2="799.9604" y2="171.8423">
			<stop  offset="0" style="stop-color:#9A5428"/>
			<stop  offset="0.098" style="stop-color:#F2B936"/>
			<stop  offset="0.1388" style="stop-color:#F2C754"/>
			<stop  offset="0.1882" style="stop-color:#F2D470"/>
			<stop  offset="0.2312" style="stop-color:#F2DC80"/>
			<stop  offset="0.2626" style="stop-color:#F2DF85"/>
			<stop  offset="0.395" style="stop-color:#F6B94B"/>
			<stop  offset="0.4453" style="stop-color:#F8A933"/>
			<stop  offset="0.5174" style="stop-color:#E29830"/>
			<stop  offset="0.6459" style="stop-color:#B87429"/>
			<stop  offset="0.8147" style="stop-color:#7E441C"/>
			<stop  offset="0.8296" style="stop-color:#793F1A"/>
		</linearGradient>
		<path fill="url(#SVGID_24_)" d="M798.98,129.477c-7.622,0.207-14.707,0.885-13.346,11.53c1.362,10.646-4.083,22.624,13.346,22.624
			s15.251-4.148,15.251-15.523C814.231,137.57,817.521,128.965,798.98,129.477z"/>
	</g>
</g>
</svg>
